<svg width="153" height="130" viewBox="0 0 153 130" fill="none" xmlns="http://www.w3.org/2000/svg">
<path fill-rule="evenodd" clip-rule="evenodd" d="M32.783 106.14L16.5978 89.9548C12.8008 86.1579 6.6447 86.1579 2.84773 89.9548C-0.949242 93.7518 -0.949243 99.9079 2.84773 103.705L24.9189 125.776C25.1343 125.992 25.3574 126.195 25.5872 126.386C25.6974 126.508 25.8111 126.627 25.9286 126.745C29.7255 130.542 35.8816 130.542 39.6786 126.745L123.948 42.4756C127.745 38.6786 127.745 32.5225 123.948 28.7256C120.151 24.9286 113.995 24.9286 110.198 28.7256L32.783 106.14Z" fill="url(#paint0_linear_24_19)"/>
<path d="M130.236 122.817C132.189 124.77 135.371 124.782 137.164 122.682C141.986 117.034 145.805 110.557 148.465 103.492C151.722 94.8427 153.18 85.4817 152.754 75.9436C152.329 66.4055 150.029 56.877 145.986 47.9021C141.942 38.9272 136.235 30.6817 129.19 23.6364C122.145 16.5911 113.899 10.884 104.924 6.8408C95.9493 2.79765 86.4208 0.497687 76.8827 0.0722259C67.3446 -0.353235 57.9837 1.10414 49.3344 4.36114C42.2693 7.02162 35.792 10.8403 30.1444 15.6619C28.0442 17.4548 28.0563 20.6375 30.0089 22.5901L130.236 122.817Z" fill="url(#paint1_linear_24_19)"/>
<defs>
<linearGradient id="paint0_linear_24_19" x1="21.1573" y1="27.9638" x2="101.503" y2="141.472" gradientUnits="userSpaceOnUse">
<stop stop-color="#15E6CD"/>
<stop offset="1" stop-color="#2F97C1"/>
</linearGradient>
<linearGradient id="paint1_linear_24_19" x1="129.19" y1="23.6364" x2="32.2294" y2="118.802" gradientUnits="userSpaceOnUse">
<stop stop-color="#1CCAD8"/>
<stop offset="1" stop-color="#587291"/>
</linearGradient>
</defs>
</svg>
